<svg xmlns="http://www.w3.org/2000/svg" viewBox="0 0 1200 675" role="img" aria-label="Gold stars and constellations on a deep navy background">
  <defs>
    <radialGradient id="sky" cx="50%" cy="42%" r="75%">
      <stop offset="0%" stop-color="#123654"/>
      <stop offset="65%" stop-color="#0b2436"/>
      <stop offset="100%" stop-color="#061723"/>
    </radialGradient>
    <radialGradient id="starburst" cx="50%" cy="50%" r="50%">
      <stop offset="0%" stop-color="#ffe6a0"/>
      <stop offset="28%" stop-color="#d0a852"/>
      <stop offset="100%" stop-color="#d0a852" stop-opacity="0"/>
    </radialGradient>
    <symbol id="spark" viewBox="-14 -14 28 28">
      <path d="M0 -13 L3 -3 L13 0 L3 3 L0 13 L-3 3 L-13 0 L-3 -3 Z" fill="#d3ab5c"/>
    </symbol>
  </defs>
  <rect width="1200" height="675" fill="url(#sky)"/>
  <g opacity="0.72" fill="#d7b66a">
    <circle cx="95" cy="74" r="2.5"/><circle cx="154" cy="158" r="2"/><circle cx="218" cy="62" r="1.8"/>
    <circle cx="305" cy="126" r="2.3"/><circle cx="386" cy="82" r="1.7"/><circle cx="470" cy="142" r="2.1"/>
    <circle cx="565" cy="70" r="1.8"/><circle cx="636" cy="148" r="2.2"/><circle cx="718" cy="88" r="1.9"/>
    <circle cx="802" cy="154" r="2"/><circle cx="878" cy="70" r="2.5"/><circle cx="968" cy="136" r="1.9"/>
    <circle cx="1078" cy="78" r="2.2"/><circle cx="1150" cy="164" r="1.8"/><circle cx="78" cy="274" r="2"/>
    <circle cx="178" cy="356" r="1.9"/><circle cx="268" cy="292" r="2.3"/><circle cx="360" cy="370" r="1.7"/>
    <circle cx="452" cy="286" r="2.4"/><circle cx="548" cy="348" r="1.8"/><circle cx="650" cy="286" r="2.1"/>
    <circle cx="746" cy="376" r="1.9"/><circle cx="836" cy="292" r="2.4"/><circle cx="930" cy="362" r="2"/>
    <circle cx="1038" cy="282" r="1.8"/><circle cx="1134" cy="370" r="2.1"/><circle cx="112" cy="544" r="2.4"/>
    <circle cx="246" cy="502" r="1.8"/><circle cx="388" cy="560" r="2"/><circle cx="526" cy="514" r="2.3"/>
    <circle cx="666" cy="568" r="1.7"/><circle cx="790" cy="510" r="2.2"/><circle cx="944" cy="550" r="1.9"/>
    <circle cx="1094" cy="506" r="2.4"/>
  </g>
  <g stroke="#d4ad60" stroke-width="2" fill="none" opacity="0.65">
    <path d="M130 210 L194 168 L254 214 L312 178"/>
    <path d="M450 420 L514 370 L596 402 L666 334 L724 366"/>
    <path d="M816 202 L870 154 L930 196 L1000 146 L1060 208"/>
    <path d="M190 530 L256 490 L334 528 L402 470"/>
  </g>
  <g>
    <use href="#spark" x="190" y="110" width="64" height="64"/>
    <use href="#spark" x="535" y="210" width="86" height="86"/>
    <use href="#spark" x="820" y="112" width="54" height="54"/>
    <use href="#spark" x="1020" y="520" width="72" height="72"/>
    <use href="#spark" x="98" y="622" width="58" height="58"/>
  </g>
  <g opacity="0.45">
    <line x1="0" y1="6" x2="160" y2="148" stroke="#d5b263" stroke-width="3"/>
    <line x1="1200" y1="8" x2="1036" y2="152" stroke="#d5b263" stroke-width="3"/>
    <line x1="0" y1="668" x2="142" y2="522" stroke="#d5b263" stroke-width="3"/>
    <line x1="1200" y1="668" x2="1052" y2="524" stroke="#d5b263" stroke-width="3"/>
  </g>
</svg>
