<svg xmlns="http://www.w3.org/2000/svg" viewBox="0 0 1200 675" role="img" aria-label="Eye of Horus on a warm gold background">
  <defs>
    <radialGradient id="gold-glow" cx="50%" cy="48%" r="62%">
      <stop offset="0%" stop-color="#d8c026"/>
      <stop offset="55%" stop-color="#7d7211"/>
      <stop offset="100%" stop-color="#1f1b08"/>
    </radialGradient>
    <filter id="soft-vignette" x="-10%" y="-10%" width="120%" height="120%">
      <feGaussianBlur stdDeviation="12"/>
    </filter>
  </defs>
  <rect width="1200" height="675" fill="url(#gold-glow)"/>
  <ellipse cx="600" cy="340" rx="410" ry="250" fill="#1b1608" opacity="0.2" filter="url(#soft-vignette)"/>
  <g fill="none" stroke="#030303" stroke-linecap="round" stroke-linejoin="round">
    <path d="M252 260 C390 258 532 244 680 216" stroke-width="26"/>
    <path d="M280 338 C430 332 525 335 635 340 C725 345 790 333 870 304" stroke-width="22"/>
    <path d="M354 337 C452 248 610 246 731 338" stroke-width="24"/>
    <path d="M356 337 C458 434 617 428 731 338" stroke-width="24"/>
    <path d="M726 338 L845 386 L733 420 Z" fill="#030303" stroke-width="8"/>
    <path d="M615 350 C612 458 595 534 552 604" stroke-width="31"/>
    <path d="M532 432 C476 476 393 495 338 464" stroke-width="22"/>
    <path d="M346 464 C285 428 266 490 315 514 C358 535 415 511 434 458" stroke-width="13"/>
  </g>
  <ellipse cx="548" cy="337" rx="92" ry="78" fill="#030303"/>
  <ellipse cx="560" cy="322" rx="33" ry="28" fill="#d5c11f" opacity="0.9"/>
</svg>
